<svg width="24" height="24" xmlns="http://www.w3.org/2000/svg">

 <g>
  <title>background</title>
  <rect fill="none" id="canvas_background" height="602" width="802" y="-1" x="-1"/>
 </g>
 <g>
  <title>Layer 1</title>
  <path stroke="#00ccc6" id="svg_2" fill="#00ccc6" d="m1,11.96875c0,-6.07513 4.92487,-11 11,-11c6.0751,0 11,4.92487 11,11c0,6.0751 -4.9249,11 -11,11c-6.07513,0 -11,-4.9249 -11,-11zm11,9c-4.97056,0 -9,-4.0294 -9,-9c0,-4.97056 4.02944,-9 9,-9c4.9706,0 9,4.02944 9,9c0,4.9706 -4.0294,9 -9,9z" clip-rule="evenodd" fill-rule="evenodd"/>
  <ellipse stroke="#ffffff" ry="9.14063" rx="9.14063" id="svg_3" cy="12" cx="12" stroke-width="null" fill="#ffffff"/>
  <path id="svg_1" fill="#00ccc6" d="m10.2426,16.28245l-4.2426,-4.2427l1.41421,-1.4142l2.82839,2.8285l5.6569,-5.6569l1.4142,1.41422l-7.0711,7.07108z"/>
 </g>
</svg>